<svg xmlns="http://www.w3.org/2000/svg" viewBox="0 0 427.38 80"><defs><style>.cls-1{fill:#231f20;}</style></defs><title>アセット 1</title><g id="レイヤー_2" data-name="レイヤー 2"><g id="レイヤー_1-2" data-name="レイヤー 1"><path class="cls-1" d="M71.56,46.68a26.5,26.5,0,0,0-8.28-5.93,41,41,0,0,0-9.18-3.27,81.46,81.46,0,0,0-9.8-1.64v-.3H37.47a54.45,54.45,0,0,1-9.8-.92,34.91,34.91,0,0,1-9.28-3.07,13.24,13.24,0,0,1-1.73-1c-.68-.44-1.35-.92-2-1.43A9,9,0,0,1,13,27.51a2.87,2.87,0,0,1-.67-1.79A3.11,3.11,0,0,1,13,23.88a8.33,8.33,0,0,1,1.63-1.68,16.12,16.12,0,0,1,2-1.38,14.58,14.58,0,0,1,1.73-.92A35.56,35.56,0,0,1,28,16.83a59.27,59.27,0,0,1,10.15-.92,59.38,59.38,0,0,1,10,.87,34.87,34.87,0,0,1,9.49,3,18.36,18.36,0,0,1,1.78.92,15.86,15.86,0,0,1,2,1.38,10,10,0,0,1,1.69,1.69A3.65,3.65,0,0,1,64,25.62V32H76.36V24.7A14,14,0,0,0,75,19.43,18.62,18.62,0,0,0,72,15a25.92,25.92,0,0,0-4.09-3.58,37.89,37.89,0,0,0-4.7-2.81A51.44,51.44,0,0,0,51,4.77,68.28,68.28,0,0,0,38.24,3.54a71,71,0,0,0-13,1.23A47.67,47.67,0,0,0,12.78,8.86l-2.45,1.43A17.63,17.63,0,0,0,8,11.92,25.74,25.74,0,0,0,2.2,18.26a13.94,13.94,0,0,0-2.2,7,14.37,14.37,0,0,0,2,7.36A25.6,25.6,0,0,0,8.59,40a14.71,14.71,0,0,0,2.1,1.43c.71.41,1.41.79,2.09,1.13A47.12,47.12,0,0,0,22.12,46,71.29,71.29,0,0,0,32,47.7v.2H38.8a67.61,67.61,0,0,1,9.74,1,33.26,33.26,0,0,1,9.33,3,15.35,15.35,0,0,1,1.74.92,16.27,16.27,0,0,1,1.94,1.38,12.61,12.61,0,0,1,1.63,1.64A3.37,3.37,0,0,1,64,57.61v.11a3.17,3.17,0,0,1-.66,1.84,8.6,8.6,0,0,1-1.63,1.68,19.71,19.71,0,0,1-2,1.38c-.68.41-1.22.72-1.63.92a35.07,35.07,0,0,1-9.75,3.17,58.11,58.11,0,0,1-10.15.92A58.28,58.28,0,0,1,28,66.71a33.72,33.72,0,0,1-9.64-3.17,14.58,14.58,0,0,1-1.73-.92,18.64,18.64,0,0,1-2-1.38A8.33,8.33,0,0,1,13,59.56a3.11,3.11,0,0,1-.67-1.84V51.58H0v6.14a13.91,13.91,0,0,0,1.09,5.52A17.72,17.72,0,0,0,4,67.89,25.23,25.23,0,0,0,8,71.67a30.62,30.62,0,0,0,4.74,2.91,49,49,0,0,0,12.4,4.14,66.71,66.71,0,0,0,26,0,47.34,47.34,0,0,0,12.29-4.14,36.94,36.94,0,0,0,5-3,21.75,21.75,0,0,0,4.19-3.94Q77,62.32,76.57,57T71.56,46.68Z"/><polygon class="cls-1" points="166.83 3.54 122.46 3.54 90.47 3.54 90.47 15.91 103.55 15.91 140.25 15.91 166.83 15.91 166.83 3.54"/><rect class="cls-1" x="122.46" y="27.87" width="12.37" height="52.13"/><polygon class="cls-1" points="204.55 3.54 166.52 79.49 180.42 79.49 181.85 76.53 208.33 23.57 236.34 79.49 249.93 79.49 212.21 3.54 204.55 3.54"/><rect class="cls-1" x="192.59" y="67.12" width="30.77" height="12.37"/><polygon class="cls-1" points="427.38 3.34 410.31 3.34 379.44 34.21 357.05 34.21 357.05 3.34 345.09 3.34 345.09 77.04 357.05 77.04 357.05 46.16 379.44 46.16 410.31 77.04 427.17 77.04 390.27 40.24 427.38 3.34"/><path class="cls-1" d="M318,54.9a27.23,27.23,0,0,1-10.12,9.52,27.7,27.7,0,0,1-13.43,3.38,26.92,26.92,0,0,1-14-3.79,28.44,28.44,0,0,1-10.18-10.23,27.27,27.27,0,0,1-3.78-14,26.94,26.94,0,0,1,3.78-14,28.59,28.59,0,0,1,10.18-10.17,26.83,26.83,0,0,1,14-3.79,27.79,27.79,0,0,1,22,10.65l3.55,4.61,9.22-7.33L325.73,15A36.46,36.46,0,0,0,312.06,3.91,40.35,40.35,0,0,0,294.49,0a38.79,38.79,0,0,0-19.94,5.38A40.37,40.37,0,0,0,260,19.88a38.34,38.34,0,0,0-5.38,19.87A38.67,38.67,0,0,0,260,59.69a40.19,40.19,0,0,0,14.55,14.55,38.71,38.71,0,0,0,19.94,5.39A39.64,39.64,0,0,0,328,61.29l3.32-5.09-10.06-6.27Z"/></g></g></svg>